<svg width="28" height="28" viewBox="0 0 28 28" fill="none" xmlns="http://www.w3.org/2000/svg">
<path d="M14.7028 13.7122L14.6836 8.98348L13.3164 8.98904L13.338 14.288L18.3414 19.2029L19.2994 18.2276L14.7028 13.7122Z" fill="black"/>
<path d="M22.2496 5.75037C20.0461 3.54687 17.1163 2.33331 14 2.33331C10.8838 2.33331 7.95402 3.54687 5.75043 5.75042C3.54694 7.95396 2.33337 10.8837 2.33337 14C2.33337 17.1162 3.54694 20.046 5.75048 22.2495C7.95402 24.4531 10.8838 25.6666 14 25.6666C17.1163 25.6666 20.0461 24.4531 22.2496 22.2496C24.4531 20.046 25.6667 17.1162 25.6667 14C25.6667 10.8837 24.4531 7.95396 22.2496 5.75037ZM21.7501 20.7833L20.4598 19.493L19.493 20.4598L20.7833 21.75C19.0758 23.2488 16.9508 24.129 14.6836 24.2766V22.4518H13.3164V24.2766C11.0492 24.129 8.92427 23.2488 7.21674 21.75L8.507 20.4597L7.54026 19.493L6.25 20.7832C4.75125 19.0757 3.87105 16.9507 3.72344 14.6836H5.54818V13.3164H3.72344C3.87105 11.0492 4.75125 8.9242 6.25005 7.21668L7.54031 8.50694L8.50705 7.5402L7.21678 6.24994C8.92427 4.75118 11.0492 3.87099 13.3164 3.72338V5.44111H14.6836V3.72338C16.9508 3.87099 19.0758 4.75118 20.7833 6.24994L19.5687 7.4646L20.5354 8.43133L21.7501 7.21668C23.2489 8.9242 24.1291 11.0492 24.2766 13.3164H22.4519V14.6836H24.2766C24.1291 16.9507 23.2489 19.0758 21.7501 20.7833Z" fill="black"/>
</svg>
